# xmcd
#
# Track frame offsets:
#	150
#	32149
#	65159
#	80007
#	105913
#	118459
#	156743
#	191434
#
# Disc length: 2799 seconds
# Revision: 2
# Processed by: cddbd v1.5.2PL0 Copyright (c) Steve Scherf et al.
# Submitted via: dBpowerAMP V12.0
#
DISCID=720aed08
DTITLE=Hundred Seventy Split - The Road [CD 2)
DYEAR=2015
DGENRE=Blues
TTITLE0=Good Morning Little Schoolgirl
TTITLE1=Poison
TTITLE2=No Deal
TTITLE3=Tennessee Plates
TTITLE4=Do You Wish You Were at Woodstock
TTITLE5=I'm Going Home
TTITLE6=Bad Blood
TTITLE7=King of the Blues
EXTD=
EXTT0=
EXTT1=
EXTT2=
EXTT3=
EXTT4=
EXTT5=
EXTT6=
EXTT7=
PLAYORDER=
